<svg width="149" height="117" viewBox="0 0 149 117" fill="none" xmlns="http://www.w3.org/2000/svg">
<rect x="1.88372" y="21.8472" width="145.754" height="93.9269" rx="13.8738" fill="#2D3250" stroke="white" stroke-width="2.23256"/>
<path d="M52.1163 10.3655C52.1163 4.64078 56.7571 0 62.4818 0H86.402C92.1267 0 96.7675 4.64077 96.7675 10.3654V22.9635H52.1163V10.3655Z" fill="white"/>
<path d="M58.495 11.8007C58.495 8.2778 61.3509 5.42194 64.8737 5.42194H84.0099C87.5328 5.42194 90.3887 8.27779 90.3887 11.8007V20.7309H58.495V11.8007Z" fill="#424769"/>
<rect x="40.9535" y="22.3256" width="11.1628" height="92.3322" fill="white"/>
<rect x="52.1163" y="55.3355" width="94.8837" height="7.97342" fill="white"/>
<rect x="3" y="47.3621" width="37.9535" height="7.97342" fill="white"/>
<path d="M58.6545 81.8073C58.6545 83.3779 58.9659 84.9332 59.571 86.3843C60.1761 87.8353 61.0629 89.1538 62.1809 90.2644C63.2989 91.375 64.6262 92.256 66.0869 92.857C67.5477 93.4581 69.1133 93.7675 70.6944 93.7675C72.2755 93.7675 73.8411 93.4581 75.3018 92.857C76.7626 92.256 78.0899 91.375 79.2079 90.2644C80.3259 89.1538 81.2127 87.8353 81.8178 86.3843C82.4228 84.9332 82.7343 83.3779 82.7343 81.8073L70.6944 81.8073H58.6545Z" fill="white"/>
<line x1="70.7247" y1="63.32" x2="58.9241" y2="81.9778" stroke="white" stroke-width="0.637874"/>
<line y1="-0.318937" x2="22.0764" y2="-0.318937" transform="matrix(0.534536 0.845145 0.845145 -0.534536 70.9336 63.1495)" stroke="white" stroke-width="0.637874"/>
<path d="M52.1163 22.9634H133.764C140.81 22.9634 146.522 28.6752 146.522 35.7209V55.3355H52.1163V22.9634Z" fill="#7077A1"/>
<path d="M3 35.7209C3 28.6752 8.71172 22.9634 15.7575 22.9634H40.9535V47.3621H3V35.7209Z" fill="#F6B17A"/>
<path d="M3 55.3355H40.9535V114.658H15.7575C8.71172 114.658 3 108.946 3 101.9V55.3355Z" fill="#424769"/>
<path d="M10.0166 73.8339C10.0166 75.4045 10.328 76.9598 10.9331 78.4108C11.5381 79.8619 12.425 81.1804 13.543 82.291C14.661 83.4016 15.9882 84.2826 17.449 84.8836C18.9097 85.4847 20.4753 85.794 22.0564 85.794C23.6375 85.794 25.2032 85.4847 26.6639 84.8836C28.1246 84.2826 29.4519 83.4016 30.5699 82.291C31.6879 81.1804 32.5748 79.8619 33.1798 78.4108C33.7849 76.9598 34.0963 75.4045 34.0963 73.8339L22.0564 73.8339H10.0166Z" fill="white"/>
<line x1="22.0868" y1="55.3466" x2="10.2861" y2="74.0044" stroke="white" stroke-width="0.637874"/>
<line y1="-0.318937" x2="22.0764" y2="-0.318937" transform="matrix(0.534536 0.845145 0.845145 -0.534536 22.2957 55.1761)" stroke="white" stroke-width="0.637874"/>
</svg>