<svg width="1280" height="720" viewBox="0 0 1280 720" fill="none" xmlns="http://www.w3.org/2000/svg">
<rect width="1280" height="720" rx="8" fill="#444444"/>
<rect width="1280" height="720" rx="8" fill="url(#paint0_linear_2634_1937)" fill-opacity="0.2"/>
<rect width="4" height="1248" transform="translate(16 672) rotate(-90)" fill="#71717A"/>
<rect x="16" y="672" width="4" height="48" transform="rotate(-90 16 672)" fill="#D4D4D8"/>
<rect x="16" y="672" width="4" height="46" transform="rotate(-90 16 672)" fill="#EF4444"/>
<g clip-path="url(#clip0_2634_1937)">
<path fill-rule="evenodd" clip-rule="evenodd" d="M27.9998 686C24.6861 686 21.9998 688.686 21.9998 692C21.9998 695.314 24.6861 698 27.9998 698C31.3135 698 33.9998 695.314 33.9998 692C33.9998 688.686 31.3135 686 27.9998 686ZM20.6665 692C20.6665 687.95 23.9497 684.667 27.9998 684.667C32.0499 684.667 35.3332 687.95 35.3332 692C35.3332 696.05 32.0499 699.333 27.9998 699.333C23.9497 699.333 20.6665 696.05 20.6665 692ZM27.9998 688.667C28.368 688.667 28.6665 688.965 28.6665 689.333V692C28.6665 692.368 28.368 692.667 27.9998 692.667C27.6316 692.667 27.3332 692.368 27.3332 692V689.333C27.3332 688.965 27.6316 688.667 27.9998 688.667ZM27.3332 694.667C27.3332 694.298 27.6316 694 27.9998 694H28.0065C28.3747 694 28.6732 694.298 28.6732 694.667C28.6732 695.035 28.3747 695.333 28.0065 695.333H27.9998C27.6316 695.333 27.3332 695.035 27.3332 694.667Z" fill="#FAFAFA"/>
</g>
<rect x="30" y="680" width="10" height="10" rx="5" fill="#EF4444"/>
<path d="M31.5273 684.801H32.043C32.2956 684.801 32.5039 684.759 32.668 684.676C32.8346 684.59 32.9583 684.474 33.0391 684.328C33.1224 684.18 33.1641 684.013 33.1641 683.828C33.1641 683.609 33.1276 683.426 33.0547 683.277C32.9818 683.129 32.8724 683.017 32.7266 682.941C32.5807 682.866 32.3958 682.828 32.1719 682.828C31.9688 682.828 31.7891 682.868 31.6328 682.949C31.4792 683.027 31.3581 683.139 31.2695 683.285C31.1836 683.431 31.1406 683.603 31.1406 683.801H30.418C30.418 683.512 30.4909 683.249 30.6367 683.012C30.7826 682.775 30.987 682.586 31.25 682.445C31.5156 682.305 31.8229 682.234 32.1719 682.234C32.5156 682.234 32.8164 682.296 33.0742 682.418C33.332 682.538 33.5326 682.717 33.6758 682.957C33.819 683.194 33.8906 683.49 33.8906 683.844C33.8906 683.987 33.8568 684.141 33.7891 684.305C33.724 684.466 33.6211 684.617 33.4805 684.758C33.3424 684.898 33.1628 685.014 32.9414 685.105C32.7201 685.194 32.4544 685.238 32.1445 685.238H31.5273V684.801ZM31.5273 685.395V684.961H32.1445C32.5065 684.961 32.806 685.004 33.043 685.09C33.2799 685.176 33.4661 685.29 33.6016 685.434C33.7396 685.577 33.8359 685.734 33.8906 685.906C33.9479 686.076 33.9766 686.245 33.9766 686.414C33.9766 686.68 33.931 686.915 33.8398 687.121C33.7513 687.327 33.625 687.501 33.4609 687.645C33.2995 687.788 33.1094 687.896 32.8906 687.969C32.6719 688.042 32.4336 688.078 32.1758 688.078C31.9284 688.078 31.6953 688.043 31.4766 687.973C31.2604 687.902 31.069 687.801 30.9023 687.668C30.7357 687.533 30.6055 687.367 30.5117 687.172C30.418 686.974 30.3711 686.749 30.3711 686.496H31.0938C31.0938 686.694 31.1367 686.867 31.2227 687.016C31.3112 687.164 31.4362 687.28 31.5977 687.363C31.7617 687.444 31.9544 687.484 32.1758 687.484C32.3971 687.484 32.5872 687.447 32.7461 687.371C32.9076 687.293 33.0312 687.176 33.1172 687.02C33.2057 686.863 33.25 686.667 33.25 686.43C33.25 686.193 33.2005 685.999 33.1016 685.848C33.0026 685.694 32.862 685.581 32.6797 685.508C32.5 685.432 32.2878 685.395 32.043 685.395H31.5273ZM36.0353 684.801H36.551C36.8036 684.801 37.0119 684.759 37.176 684.676C37.3426 684.59 37.4663 684.474 37.5471 684.328C37.6304 684.18 37.6721 684.013 37.6721 683.828C37.6721 683.609 37.6356 683.426 37.5627 683.277C37.4898 683.129 37.3804 683.017 37.2346 682.941C37.0887 682.866 36.9038 682.828 36.6799 682.828C36.4767 682.828 36.2971 682.868 36.1408 682.949C35.9872 683.027 35.8661 683.139 35.7775 683.285C35.6916 683.431 35.6486 683.603 35.6486 683.801H34.926C34.926 683.512 34.9989 683.249 35.1447 683.012C35.2906 682.775 35.495 682.586 35.758 682.445C36.0236 682.305 36.3309 682.234 36.6799 682.234C37.0236 682.234 37.3244 682.296 37.5822 682.418C37.84 682.538 38.0406 682.717 38.1838 682.957C38.327 683.194 38.3986 683.49 38.3986 683.844C38.3986 683.987 38.3648 684.141 38.2971 684.305C38.232 684.466 38.1291 684.617 37.9885 684.758C37.8504 684.898 37.6708 685.014 37.4494 685.105C37.2281 685.194 36.9624 685.238 36.6525 685.238H36.0353V684.801ZM36.0353 685.395V684.961H36.6525C37.0145 684.961 37.314 685.004 37.551 685.09C37.7879 685.176 37.9741 685.29 38.1096 685.434C38.2476 685.577 38.3439 685.734 38.3986 685.906C38.4559 686.076 38.4846 686.245 38.4846 686.414C38.4846 686.68 38.439 686.915 38.3478 687.121C38.2593 687.327 38.133 687.501 37.9689 687.645C37.8075 687.788 37.6174 687.896 37.3986 687.969C37.1799 688.042 36.9416 688.078 36.6838 688.078C36.4364 688.078 36.2033 688.043 35.9846 687.973C35.7684 687.902 35.577 687.801 35.4103 687.668C35.2437 687.533 35.1135 687.367 35.0197 687.172C34.926 686.974 34.8791 686.749 34.8791 686.496H35.6017C35.6017 686.694 35.6447 686.867 35.7307 687.016C35.8192 687.164 35.9442 687.28 36.1057 687.363C36.2697 687.444 36.4624 687.484 36.6838 687.484C36.9051 687.484 37.0952 687.447 37.2541 687.371C37.4156 687.293 37.5392 687.176 37.6252 687.02C37.7137 686.863 37.758 686.667 37.758 686.43C37.758 686.193 37.7085 685.999 37.6096 685.848C37.5106 685.694 37.37 685.581 37.1877 685.508C37.008 685.432 36.7958 685.395 36.551 685.395H36.0353Z" fill="#FAFAFA"/>
<g clip-path="url(#clip1_2634_1937)">
<path fill-rule="evenodd" clip-rule="evenodd" d="M67.9998 686C64.6861 686 61.9998 688.686 61.9998 692C61.9998 695.314 64.6861 698 67.9998 698C71.3135 698 73.9998 695.314 73.9998 692C73.9998 688.686 71.3135 686 67.9998 686ZM60.6665 692C60.6665 687.95 63.9497 684.667 67.9998 684.667C72.0499 684.667 75.3332 687.95 75.3332 692C75.3332 696.05 72.0499 699.333 67.9998 699.333C63.9497 699.333 60.6665 696.05 60.6665 692ZM67.9998 688.667C68.368 688.667 68.6665 688.965 68.6665 689.333V692C68.6665 692.368 68.368 692.667 67.9998 692.667C67.6316 692.667 67.3332 692.368 67.3332 692V689.333C67.3332 688.965 67.6316 688.667 67.9998 688.667ZM67.3332 694.667C67.3332 694.298 67.6316 694 67.9998 694H68.0065C68.3747 694 68.6732 694.298 68.6732 694.667C68.6732 695.035 68.3747 695.333 68.0065 695.333H67.9998C67.6316 695.333 67.3332 695.035 67.3332 694.667Z" fill="#FAFAFA"/>
</g>
<g clip-path="url(#clip2_2634_1937)">
<path fill-rule="evenodd" clip-rule="evenodd" d="M108 686C104.686 686 102 688.686 102 692C102 695.314 104.686 698 108 698C111.314 698 114 695.314 114 692C114 688.686 111.314 686 108 686ZM100.667 692C100.667 687.95 103.95 684.667 108 684.667C112.05 684.667 115.333 687.95 115.333 692C115.333 696.05 112.05 699.333 108 699.333C103.95 699.333 100.667 696.05 100.667 692ZM108 688.667C108.368 688.667 108.667 688.965 108.667 689.333V692C108.667 692.368 108.368 692.667 108 692.667C107.632 692.667 107.333 692.368 107.333 692V689.333C107.333 688.965 107.632 688.667 108 688.667ZM107.333 694.667C107.333 694.298 107.632 694 108 694H108.007C108.375 694 108.673 694.298 108.673 694.667C108.673 695.035 108.375 695.333 108.007 695.333H108C107.632 695.333 107.333 695.035 107.333 694.667Z" fill="#FAFAFA"/>
</g>
<rect x="110" y="680" width="10" height="10" rx="5" fill="#EF4444"/>
<path d="M111.527 684.801H112.043C112.296 684.801 112.504 684.759 112.668 684.676C112.835 684.59 112.958 684.474 113.039 684.328C113.122 684.18 113.164 684.013 113.164 683.828C113.164 683.609 113.128 683.426 113.055 683.277C112.982 683.129 112.872 683.017 112.727 682.941C112.581 682.866 112.396 682.828 112.172 682.828C111.969 682.828 111.789 682.868 111.633 682.949C111.479 683.027 111.358 683.139 111.27 683.285C111.184 683.431 111.141 683.603 111.141 683.801H110.418C110.418 683.512 110.491 683.249 110.637 683.012C110.783 682.775 110.987 682.586 111.25 682.445C111.516 682.305 111.823 682.234 112.172 682.234C112.516 682.234 112.816 682.296 113.074 682.418C113.332 682.538 113.533 682.717 113.676 682.957C113.819 683.194 113.891 683.49 113.891 683.844C113.891 683.987 113.857 684.141 113.789 684.305C113.724 684.466 113.621 684.617 113.48 684.758C113.342 684.898 113.163 685.014 112.941 685.105C112.72 685.194 112.454 685.238 112.145 685.238H111.527V684.801ZM111.527 685.395V684.961H112.145C112.507 684.961 112.806 685.004 113.043 685.09C113.28 685.176 113.466 685.29 113.602 685.434C113.74 685.577 113.836 685.734 113.891 685.906C113.948 686.076 113.977 686.245 113.977 686.414C113.977 686.68 113.931 686.915 113.84 687.121C113.751 687.327 113.625 687.501 113.461 687.645C113.299 687.788 113.109 687.896 112.891 687.969C112.672 688.042 112.434 688.078 112.176 688.078C111.928 688.078 111.695 688.043 111.477 687.973C111.26 687.902 111.069 687.801 110.902 687.668C110.736 687.533 110.605 687.367 110.512 687.172C110.418 686.974 110.371 686.749 110.371 686.496H111.094C111.094 686.694 111.137 686.867 111.223 687.016C111.311 687.164 111.436 687.28 111.598 687.363C111.762 687.444 111.954 687.484 112.176 687.484C112.397 687.484 112.587 687.447 112.746 687.371C112.908 687.293 113.031 687.176 113.117 687.02C113.206 686.863 113.25 686.667 113.25 686.43C113.25 686.193 113.201 685.999 113.102 685.848C113.003 685.694 112.862 685.581 112.68 685.508C112.5 685.432 112.288 685.395 112.043 685.395H111.527ZM116.035 684.801H116.551C116.804 684.801 117.012 684.759 117.176 684.676C117.343 684.59 117.466 684.474 117.547 684.328C117.63 684.18 117.672 684.013 117.672 683.828C117.672 683.609 117.636 683.426 117.563 683.277C117.49 683.129 117.38 683.017 117.235 682.941C117.089 682.866 116.904 682.828 116.68 682.828C116.477 682.828 116.297 682.868 116.141 682.949C115.987 683.027 115.866 683.139 115.778 683.285C115.692 683.431 115.649 683.603 115.649 683.801H114.926C114.926 683.512 114.999 683.249 115.145 683.012C115.291 682.775 115.495 682.586 115.758 682.445C116.024 682.305 116.331 682.234 116.68 682.234C117.024 682.234 117.324 682.296 117.582 682.418C117.84 682.538 118.041 682.717 118.184 682.957C118.327 683.194 118.399 683.49 118.399 683.844C118.399 683.987 118.365 684.141 118.297 684.305C118.232 684.466 118.129 684.617 117.988 684.758C117.85 684.898 117.671 685.014 117.449 685.105C117.228 685.194 116.962 685.238 116.653 685.238H116.035V684.801ZM116.035 685.395V684.961H116.653C117.015 684.961 117.314 685.004 117.551 685.09C117.788 685.176 117.974 685.29 118.11 685.434C118.248 685.577 118.344 685.734 118.399 685.906C118.456 686.076 118.485 686.245 118.485 686.414C118.485 686.68 118.439 686.915 118.348 687.121C118.259 687.327 118.133 687.501 117.969 687.645C117.807 687.788 117.617 687.896 117.399 687.969C117.18 688.042 116.942 688.078 116.684 688.078C116.436 688.078 116.203 688.043 115.985 687.973C115.768 687.902 115.577 687.801 115.41 687.668C115.244 687.533 115.113 687.367 115.02 687.172C114.926 686.974 114.879 686.749 114.879 686.496H115.602C115.602 686.694 115.645 686.867 115.731 687.016C115.819 687.164 115.944 687.28 116.106 687.363C116.27 687.444 116.462 687.484 116.684 687.484C116.905 687.484 117.095 687.447 117.254 687.371C117.416 687.293 117.539 687.176 117.625 687.02C117.714 686.863 117.758 686.667 117.758 686.43C117.758 686.193 117.709 685.999 117.61 685.848C117.511 685.694 117.37 685.581 117.188 685.508C117.008 685.432 116.796 685.395 116.551 685.395H116.035Z" fill="#FAFAFA"/>
<rect x="136" y="694" width="4" height="68" rx="2" transform="rotate(-90 136 694)" fill="#71717A"/>
<rect x="136" y="694" width="4" height="48" rx="2" transform="rotate(-90 136 694)" fill="#FAFAFA"/>
<circle cx="182.5" cy="691.5" r="6.5" fill="#FAFAFA"/>
<rect x="136" y="694" width="4" height="46" rx="2" transform="rotate(-90 136 694)" fill="#FEF2F2"/>
<path d="M221.09 695L222.195 689.312H222.758L221.648 695H221.09ZM222.68 695L223.789 689.312H224.348L223.238 695H222.68ZM224.824 691.48H220.762V690.938H224.824V691.48ZM224.531 693.398H220.465V692.859H224.531V693.398Z" fill="#FAFAFA"/>
<path d="M230.09 695L231.195 689.312H231.758L230.648 695H230.09ZM231.68 695L232.789 689.312H233.348L232.238 695H231.68ZM233.824 691.48H229.762V690.938H233.824V691.48ZM233.531 693.398H229.465V692.859H233.531V693.398Z" fill="#FAFAFA"/>
<path d="M239.09 695L240.195 689.312H240.758L239.648 695H239.09ZM240.68 695L241.789 689.312H242.348L241.238 695H240.68ZM242.824 691.48H238.762V690.938H242.824V691.48ZM242.531 693.398H238.465V692.859H242.531V693.398Z" fill="#FAFAFA"/>
<path d="M262.336 690.773V695H261.609V690.773H262.336ZM261.555 689.652C261.555 689.535 261.59 689.436 261.66 689.355C261.733 689.275 261.84 689.234 261.98 689.234C262.118 689.234 262.224 689.275 262.297 689.355C262.372 689.436 262.41 689.535 262.41 689.652C262.41 689.764 262.372 689.861 262.297 689.941C262.224 690.02 262.118 690.059 261.98 690.059C261.84 690.059 261.733 690.02 261.66 689.941C261.59 689.861 261.555 689.764 261.555 689.652ZM264.227 691.676V695H263.504V690.773H264.188L264.227 691.676ZM264.055 692.727L263.754 692.715C263.757 692.426 263.8 692.159 263.883 691.914C263.966 691.667 264.084 691.452 264.235 691.27C264.386 691.087 264.565 690.947 264.774 690.848C264.985 690.746 265.218 690.695 265.473 690.695C265.681 690.695 265.869 690.724 266.035 690.781C266.202 690.836 266.344 690.924 266.461 691.047C266.581 691.169 266.672 691.328 266.735 691.523C266.797 691.716 266.828 691.952 266.828 692.23V695H266.102V692.223C266.102 692.001 266.069 691.824 266.004 691.691C265.939 691.556 265.844 691.458 265.719 691.398C265.594 691.336 265.44 691.305 265.258 691.305C265.078 691.305 264.914 691.342 264.766 691.418C264.62 691.493 264.494 691.598 264.387 691.73C264.283 691.863 264.201 692.016 264.141 692.188C264.084 692.357 264.055 692.536 264.055 692.727ZM269.703 690.773V691.328H267.418V690.773H269.703ZM268.192 689.746H268.914V693.953C268.914 694.096 268.937 694.204 268.981 694.277C269.025 694.35 269.082 694.398 269.153 694.422C269.223 694.445 269.299 694.457 269.379 694.457C269.439 694.457 269.502 694.452 269.567 694.441C269.634 694.428 269.685 694.418 269.719 694.41L269.723 695C269.666 695.018 269.59 695.035 269.496 695.051C269.405 695.069 269.295 695.078 269.164 695.078C268.987 695.078 268.825 695.043 268.676 694.973C268.528 694.902 268.409 694.785 268.321 694.621C268.235 694.454 268.192 694.23 268.192 693.949V689.746ZM271.282 691.438V695H270.559V690.773H271.262L271.282 691.438ZM272.602 690.75L272.598 691.422C272.538 691.409 272.481 691.401 272.426 691.398C272.374 691.393 272.314 691.391 272.247 691.391C272.08 691.391 271.933 691.417 271.805 691.469C271.678 691.521 271.57 691.594 271.481 691.688C271.392 691.781 271.322 691.893 271.27 692.023C271.221 692.151 271.188 692.292 271.172 692.445L270.969 692.562C270.969 692.307 270.994 692.068 271.044 691.844C271.096 691.62 271.175 691.422 271.282 691.25C271.389 691.076 271.524 690.94 271.688 690.844C271.855 690.745 272.053 690.695 272.282 690.695C272.334 690.695 272.394 690.702 272.462 690.715C272.529 690.725 272.576 690.737 272.602 690.75ZM273.009 692.934V692.844C273.009 692.539 273.053 692.257 273.141 691.996C273.23 691.733 273.358 691.505 273.524 691.312C273.691 691.117 273.893 690.966 274.13 690.859C274.367 690.75 274.632 690.695 274.927 690.695C275.223 690.695 275.49 690.75 275.727 690.859C275.967 690.966 276.17 691.117 276.337 691.312C276.506 691.505 276.635 691.733 276.723 691.996C276.812 692.257 276.856 692.539 276.856 692.844V692.934C276.856 693.238 276.812 693.521 276.723 693.781C276.635 694.042 276.506 694.27 276.337 694.465C276.17 694.658 275.968 694.809 275.731 694.918C275.497 695.025 275.231 695.078 274.934 695.078C274.637 695.078 274.371 695.025 274.134 694.918C273.897 694.809 273.693 694.658 273.524 694.465C273.358 694.27 273.23 694.042 273.141 693.781C273.053 693.521 273.009 693.238 273.009 692.934ZM273.731 692.844V692.934C273.731 693.145 273.756 693.344 273.805 693.531C273.855 693.716 273.929 693.88 274.028 694.023C274.13 694.167 274.256 694.28 274.407 694.363C274.558 694.444 274.734 694.484 274.934 694.484C275.132 694.484 275.305 694.444 275.454 694.363C275.605 694.28 275.73 694.167 275.829 694.023C275.928 693.88 276.002 693.716 276.052 693.531C276.104 693.344 276.13 693.145 276.13 692.934V692.844C276.13 692.635 276.104 692.439 276.052 692.254C276.002 692.066 275.927 691.901 275.825 691.758C275.726 691.612 275.601 691.497 275.45 691.414C275.302 691.331 275.127 691.289 274.927 691.289C274.729 691.289 274.554 691.331 274.403 691.414C274.255 691.497 274.13 691.612 274.028 691.758C273.929 691.901 273.855 692.066 273.805 692.254C273.756 692.439 273.731 692.635 273.731 692.844Z" fill="#FAFAFA"/>
<path fill-rule="evenodd" clip-rule="evenodd" d="M282.146 688.646C282.342 688.451 282.658 688.451 282.854 688.646L285.854 691.646C286.049 691.842 286.049 692.158 285.854 692.354L282.854 695.354C282.658 695.549 282.342 695.549 282.146 695.354C281.951 695.158 281.951 694.842 282.146 694.646L284.793 692L282.146 689.354C281.951 689.158 281.951 688.842 282.146 688.646Z" fill="#FAFAFA"/>
<rect x="1022" y="690" width="20" height="4" rx="2" fill="#71717A"/>
<rect x="1030" y="686" width="12" height="12" rx="6" fill="white"/>
<path fill-rule="evenodd" clip-rule="evenodd" d="M1033.84 688.707C1033.95 688.649 1034.08 688.654 1034.18 688.719L1038.85 691.719C1038.94 691.781 1039 691.886 1039 692C1039 692.113 1038.94 692.219 1038.85 692.28L1034.18 695.28C1034.08 695.346 1033.95 695.351 1033.84 695.292C1033.73 695.234 1033.67 695.122 1033.67 695V689C1033.67 688.878 1033.73 688.766 1033.84 688.707ZM1034.33 689.61V694.389L1038.05 692L1034.33 689.61Z" fill="#27272A"/>
<g clip-path="url(#clip3_2634_1937)">
<path fill-rule="evenodd" clip-rule="evenodd" d="M1067 686C1063.69 686 1061 688.686 1061 692C1061 695.314 1063.69 698 1067 698C1070.31 698 1073 695.314 1073 692C1073 688.686 1070.31 686 1067 686ZM1059.67 692C1059.67 687.95 1062.95 684.667 1067 684.667C1071.05 684.667 1074.33 687.95 1074.33 692C1074.33 696.05 1071.05 699.333 1067 699.333C1062.95 699.333 1059.67 696.05 1059.67 692ZM1067 688.667C1067.37 688.667 1067.67 688.965 1067.67 689.333V692C1067.67 692.368 1067.37 692.667 1067 692.667C1066.63 692.667 1066.33 692.368 1066.33 692V689.333C1066.33 688.965 1066.63 688.667 1067 688.667ZM1066.33 694.667C1066.33 694.298 1066.63 694 1067 694H1067.01C1067.37 694 1067.67 694.298 1067.67 694.667C1067.67 695.035 1067.37 695.333 1067.01 695.333H1067C1066.63 695.333 1066.33 695.035 1066.33 694.667Z" fill="#FAFAFA"/>
</g>
<rect x="1069" y="680" width="10" height="10" rx="5" fill="#EF4444"/>
<path d="M1070.53 684.801H1071.04C1071.3 684.801 1071.5 684.759 1071.67 684.676C1071.83 684.59 1071.96 684.474 1072.04 684.328C1072.12 684.18 1072.16 684.013 1072.16 683.828C1072.16 683.609 1072.13 683.426 1072.05 683.277C1071.98 683.129 1071.87 683.017 1071.73 682.941C1071.58 682.866 1071.4 682.828 1071.17 682.828C1070.97 682.828 1070.79 682.868 1070.63 682.949C1070.48 683.027 1070.36 683.139 1070.27 683.285C1070.18 683.431 1070.14 683.603 1070.14 683.801H1069.42C1069.42 683.512 1069.49 683.249 1069.64 683.012C1069.78 682.775 1069.99 682.586 1070.25 682.445C1070.52 682.305 1070.82 682.234 1071.17 682.234C1071.52 682.234 1071.82 682.296 1072.07 682.418C1072.33 682.538 1072.53 682.717 1072.68 682.957C1072.82 683.194 1072.89 683.49 1072.89 683.844C1072.89 683.987 1072.86 684.141 1072.79 684.305C1072.72 684.466 1072.62 684.617 1072.48 684.758C1072.34 684.898 1072.16 685.014 1071.94 685.105C1071.72 685.194 1071.45 685.238 1071.14 685.238H1070.53V684.801ZM1070.53 685.395V684.961H1071.14C1071.51 684.961 1071.81 685.004 1072.04 685.09C1072.28 685.176 1072.47 685.29 1072.6 685.434C1072.74 685.577 1072.84 685.734 1072.89 685.906C1072.95 686.076 1072.98 686.245 1072.98 686.414C1072.98 686.68 1072.93 686.915 1072.84 687.121C1072.75 687.327 1072.62 687.501 1072.46 687.645C1072.3 687.788 1072.11 687.896 1071.89 687.969C1071.67 688.042 1071.43 688.078 1071.18 688.078C1070.93 688.078 1070.7 688.043 1070.48 687.973C1070.26 687.902 1070.07 687.801 1069.9 687.668C1069.74 687.533 1069.61 687.367 1069.51 687.172C1069.42 686.974 1069.37 686.749 1069.37 686.496H1070.09C1070.09 686.694 1070.14 686.867 1070.22 687.016C1070.31 687.164 1070.44 687.28 1070.6 687.363C1070.76 687.444 1070.95 687.484 1071.18 687.484C1071.4 687.484 1071.59 687.447 1071.75 687.371C1071.91 687.293 1072.03 687.176 1072.12 687.02C1072.21 686.863 1072.25 686.667 1072.25 686.43C1072.25 686.193 1072.2 685.999 1072.1 685.848C1072 685.694 1071.86 685.581 1071.68 685.508C1071.5 685.432 1071.29 685.395 1071.04 685.395H1070.53ZM1075.04 684.801H1075.55C1075.8 684.801 1076.01 684.759 1076.18 684.676C1076.34 684.59 1076.47 684.474 1076.55 684.328C1076.63 684.18 1076.67 684.013 1076.67 683.828C1076.67 683.609 1076.64 683.426 1076.56 683.277C1076.49 683.129 1076.38 683.017 1076.23 682.941C1076.09 682.866 1075.9 682.828 1075.68 682.828C1075.48 682.828 1075.3 682.868 1075.14 682.949C1074.99 683.027 1074.87 683.139 1074.78 683.285C1074.69 683.431 1074.65 683.603 1074.65 683.801H1073.93C1073.93 683.512 1074 683.249 1074.14 683.012C1074.29 682.775 1074.49 682.586 1074.76 682.445C1075.02 682.305 1075.33 682.234 1075.68 682.234C1076.02 682.234 1076.32 682.296 1076.58 682.418C1076.84 682.538 1077.04 682.717 1077.18 682.957C1077.33 683.194 1077.4 683.49 1077.4 683.844C1077.4 683.987 1077.36 684.141 1077.3 684.305C1077.23 684.466 1077.13 684.617 1076.99 684.758C1076.85 684.898 1076.67 685.014 1076.45 685.105C1076.23 685.194 1075.96 685.238 1075.65 685.238H1075.04V684.801ZM1075.04 685.395V684.961H1075.65C1076.01 684.961 1076.31 685.004 1076.55 685.09C1076.79 685.176 1076.97 685.29 1077.11 685.434C1077.25 685.577 1077.34 685.734 1077.4 685.906C1077.46 686.076 1077.48 686.245 1077.48 686.414C1077.48 686.68 1077.44 686.915 1077.35 687.121C1077.26 687.327 1077.13 687.501 1076.97 687.645C1076.81 687.788 1076.62 687.896 1076.4 687.969C1076.18 688.042 1075.94 688.078 1075.68 688.078C1075.44 688.078 1075.2 688.043 1074.98 687.973C1074.77 687.902 1074.58 687.801 1074.41 687.668C1074.24 687.533 1074.11 687.367 1074.02 687.172C1073.93 686.974 1073.88 686.749 1073.88 686.496H1074.6C1074.6 686.694 1074.64 686.867 1074.73 687.016C1074.82 687.164 1074.94 687.28 1075.11 687.363C1075.27 687.444 1075.46 687.484 1075.68 687.484C1075.91 687.484 1076.1 687.447 1076.25 687.371C1076.42 687.293 1076.54 687.176 1076.63 687.02C1076.71 686.863 1076.76 686.667 1076.76 686.43C1076.76 686.193 1076.71 685.999 1076.61 685.848C1076.51 685.694 1076.37 685.581 1076.19 685.508C1076.01 685.432 1075.8 685.395 1075.55 685.395H1075.04Z" fill="#FAFAFA"/>
<g clip-path="url(#clip4_2634_1937)">
<path fill-rule="evenodd" clip-rule="evenodd" d="M1104 686C1100.69 686 1098 688.686 1098 692C1098 695.314 1100.69 698 1104 698C1107.31 698 1110 695.314 1110 692C1110 688.686 1107.31 686 1104 686ZM1096.67 692C1096.67 687.95 1099.95 684.667 1104 684.667C1108.05 684.667 1111.33 687.95 1111.33 692C1111.33 696.05 1108.05 699.333 1104 699.333C1099.95 699.333 1096.67 696.05 1096.67 692ZM1104 688.667C1104.37 688.667 1104.67 688.965 1104.67 689.333V692C1104.67 692.368 1104.37 692.667 1104 692.667C1103.63 692.667 1103.33 692.368 1103.33 692V689.333C1103.33 688.965 1103.63 688.667 1104 688.667ZM1103.33 694.667C1103.33 694.298 1103.63 694 1104 694H1104.01C1104.37 694 1104.67 694.298 1104.67 694.667C1104.67 695.035 1104.37 695.333 1104.01 695.333H1104C1103.63 695.333 1103.33 695.035 1103.33 694.667Z" fill="#FAFAFA"/>
</g>
<rect x="1106" y="680" width="10" height="10" rx="5" fill="#EF4444"/>
<path d="M1107.53 684.801H1108.04C1108.3 684.801 1108.5 684.759 1108.67 684.676C1108.83 684.59 1108.96 684.474 1109.04 684.328C1109.12 684.18 1109.16 684.013 1109.16 683.828C1109.16 683.609 1109.13 683.426 1109.05 683.277C1108.98 683.129 1108.87 683.017 1108.73 682.941C1108.58 682.866 1108.4 682.828 1108.17 682.828C1107.97 682.828 1107.79 682.868 1107.63 682.949C1107.48 683.027 1107.36 683.139 1107.27 683.285C1107.18 683.431 1107.14 683.603 1107.14 683.801H1106.42C1106.42 683.512 1106.49 683.249 1106.64 683.012C1106.78 682.775 1106.99 682.586 1107.25 682.445C1107.52 682.305 1107.82 682.234 1108.17 682.234C1108.52 682.234 1108.82 682.296 1109.07 682.418C1109.33 682.538 1109.53 682.717 1109.68 682.957C1109.82 683.194 1109.89 683.49 1109.89 683.844C1109.89 683.987 1109.86 684.141 1109.79 684.305C1109.72 684.466 1109.62 684.617 1109.48 684.758C1109.34 684.898 1109.16 685.014 1108.94 685.105C1108.72 685.194 1108.45 685.238 1108.14 685.238H1107.53V684.801ZM1107.53 685.395V684.961H1108.14C1108.51 684.961 1108.81 685.004 1109.04 685.09C1109.28 685.176 1109.47 685.29 1109.6 685.434C1109.74 685.577 1109.84 685.734 1109.89 685.906C1109.95 686.076 1109.98 686.245 1109.98 686.414C1109.98 686.68 1109.93 686.915 1109.84 687.121C1109.75 687.327 1109.62 687.501 1109.46 687.645C1109.3 687.788 1109.11 687.896 1108.89 687.969C1108.67 688.042 1108.43 688.078 1108.18 688.078C1107.93 688.078 1107.7 688.043 1107.48 687.973C1107.26 687.902 1107.07 687.801 1106.9 687.668C1106.74 687.533 1106.61 687.367 1106.51 687.172C1106.42 686.974 1106.37 686.749 1106.37 686.496H1107.09C1107.09 686.694 1107.14 686.867 1107.22 687.016C1107.31 687.164 1107.44 687.28 1107.6 687.363C1107.76 687.444 1107.95 687.484 1108.18 687.484C1108.4 687.484 1108.59 687.447 1108.75 687.371C1108.91 687.293 1109.03 687.176 1109.12 687.02C1109.21 686.863 1109.25 686.667 1109.25 686.43C1109.25 686.193 1109.2 685.999 1109.1 685.848C1109 685.694 1108.86 685.581 1108.68 685.508C1108.5 685.432 1108.29 685.395 1108.04 685.395H1107.53ZM1112.04 684.801H1112.55C1112.8 684.801 1113.01 684.759 1113.18 684.676C1113.34 684.59 1113.47 684.474 1113.55 684.328C1113.63 684.18 1113.67 684.013 1113.67 683.828C1113.67 683.609 1113.64 683.426 1113.56 683.277C1113.49 683.129 1113.38 683.017 1113.23 682.941C1113.09 682.866 1112.9 682.828 1112.68 682.828C1112.48 682.828 1112.3 682.868 1112.14 682.949C1111.99 683.027 1111.87 683.139 1111.78 683.285C1111.69 683.431 1111.65 683.603 1111.65 683.801H1110.93C1110.93 683.512 1111 683.249 1111.14 683.012C1111.29 682.775 1111.49 682.586 1111.76 682.445C1112.02 682.305 1112.33 682.234 1112.68 682.234C1113.02 682.234 1113.32 682.296 1113.58 682.418C1113.84 682.538 1114.04 682.717 1114.18 682.957C1114.33 683.194 1114.4 683.49 1114.4 683.844C1114.4 683.987 1114.36 684.141 1114.3 684.305C1114.23 684.466 1114.13 684.617 1113.99 684.758C1113.85 684.898 1113.67 685.014 1113.45 685.105C1113.23 685.194 1112.96 685.238 1112.65 685.238H1112.04V684.801ZM1112.04 685.395V684.961H1112.65C1113.01 684.961 1113.31 685.004 1113.55 685.09C1113.79 685.176 1113.97 685.29 1114.11 685.434C1114.25 685.577 1114.34 685.734 1114.4 685.906C1114.46 686.076 1114.48 686.245 1114.48 686.414C1114.48 686.68 1114.44 686.915 1114.35 687.121C1114.26 687.327 1114.13 687.501 1113.97 687.645C1113.81 687.788 1113.62 687.896 1113.4 687.969C1113.18 688.042 1112.94 688.078 1112.68 688.078C1112.44 688.078 1112.2 688.043 1111.98 687.973C1111.77 687.902 1111.58 687.801 1111.41 687.668C1111.24 687.533 1111.11 687.367 1111.02 687.172C1110.93 686.974 1110.88 686.749 1110.88 686.496H1111.6C1111.6 686.694 1111.64 686.867 1111.73 687.016C1111.82 687.164 1111.94 687.28 1112.11 687.363C1112.27 687.444 1112.46 687.484 1112.68 687.484C1112.91 687.484 1113.1 687.447 1113.25 687.371C1113.42 687.293 1113.54 687.176 1113.63 687.02C1113.71 686.863 1113.76 686.667 1113.76 686.43C1113.76 686.193 1113.71 685.999 1113.61 685.848C1113.51 685.694 1113.37 685.581 1113.19 685.508C1113.01 685.432 1112.8 685.395 1112.55 685.395H1112.04Z" fill="#FAFAFA"/>
<g clip-path="url(#clip5_2634_1937)">
<path fill-rule="evenodd" clip-rule="evenodd" d="M1141 686C1137.69 686 1135 688.686 1135 692C1135 695.314 1137.69 698 1141 698C1144.31 698 1147 695.314 1147 692C1147 688.686 1144.31 686 1141 686ZM1133.67 692C1133.67 687.95 1136.95 684.667 1141 684.667C1145.05 684.667 1148.33 687.95 1148.33 692C1148.33 696.05 1145.05 699.333 1141 699.333C1136.95 699.333 1133.67 696.05 1133.67 692ZM1141 688.667C1141.37 688.667 1141.67 688.965 1141.67 689.333V692C1141.67 692.368 1141.37 692.667 1141 692.667C1140.63 692.667 1140.33 692.368 1140.33 692V689.333C1140.33 688.965 1140.63 688.667 1141 688.667ZM1140.33 694.667C1140.33 694.298 1140.63 694 1141 694H1141.01C1141.37 694 1141.67 694.298 1141.67 694.667C1141.67 695.035 1141.37 695.333 1141.01 695.333H1141C1140.63 695.333 1140.33 695.035 1140.33 694.667Z" fill="#FAFAFA"/>
</g>
<rect x="1143" y="680" width="10" height="10" rx="5" fill="#EF4444"/>
<path d="M1144.53 684.801H1145.04C1145.3 684.801 1145.5 684.759 1145.67 684.676C1145.83 684.59 1145.96 684.474 1146.04 684.328C1146.12 684.18 1146.16 684.013 1146.16 683.828C1146.16 683.609 1146.13 683.426 1146.05 683.277C1145.98 683.129 1145.87 683.017 1145.73 682.941C1145.58 682.866 1145.4 682.828 1145.17 682.828C1144.97 682.828 1144.79 682.868 1144.63 682.949C1144.48 683.027 1144.36 683.139 1144.27 683.285C1144.18 683.431 1144.14 683.603 1144.14 683.801H1143.42C1143.42 683.512 1143.49 683.249 1143.64 683.012C1143.78 682.775 1143.99 682.586 1144.25 682.445C1144.52 682.305 1144.82 682.234 1145.17 682.234C1145.52 682.234 1145.82 682.296 1146.07 682.418C1146.33 682.538 1146.53 682.717 1146.68 682.957C1146.82 683.194 1146.89 683.49 1146.89 683.844C1146.89 683.987 1146.86 684.141 1146.79 684.305C1146.72 684.466 1146.62 684.617 1146.48 684.758C1146.34 684.898 1146.16 685.014 1145.94 685.105C1145.72 685.194 1145.45 685.238 1145.14 685.238H1144.53V684.801ZM1144.53 685.395V684.961H1145.14C1145.51 684.961 1145.81 685.004 1146.04 685.09C1146.28 685.176 1146.47 685.29 1146.6 685.434C1146.74 685.577 1146.84 685.734 1146.89 685.906C1146.95 686.076 1146.98 686.245 1146.98 686.414C1146.98 686.68 1146.93 686.915 1146.84 687.121C1146.75 687.327 1146.62 687.501 1146.46 687.645C1146.3 687.788 1146.11 687.896 1145.89 687.969C1145.67 688.042 1145.43 688.078 1145.18 688.078C1144.93 688.078 1144.7 688.043 1144.48 687.973C1144.26 687.902 1144.07 687.801 1143.9 687.668C1143.74 687.533 1143.61 687.367 1143.51 687.172C1143.42 686.974 1143.37 686.749 1143.37 686.496H1144.09C1144.09 686.694 1144.14 686.867 1144.22 687.016C1144.31 687.164 1144.44 687.28 1144.6 687.363C1144.76 687.444 1144.95 687.484 1145.18 687.484C1145.4 687.484 1145.59 687.447 1145.75 687.371C1145.91 687.293 1146.03 687.176 1146.12 687.02C1146.21 686.863 1146.25 686.667 1146.25 686.43C1146.25 686.193 1146.2 685.999 1146.1 685.848C1146 685.694 1145.86 685.581 1145.68 685.508C1145.5 685.432 1145.29 685.395 1145.04 685.395H1144.53ZM1149.04 684.801H1149.55C1149.8 684.801 1150.01 684.759 1150.18 684.676C1150.34 684.59 1150.47 684.474 1150.55 684.328C1150.63 684.18 1150.67 684.013 1150.67 683.828C1150.67 683.609 1150.64 683.426 1150.56 683.277C1150.49 683.129 1150.38 683.017 1150.23 682.941C1150.09 682.866 1149.9 682.828 1149.68 682.828C1149.48 682.828 1149.3 682.868 1149.14 682.949C1148.99 683.027 1148.87 683.139 1148.78 683.285C1148.69 683.431 1148.65 683.603 1148.65 683.801H1147.93C1147.93 683.512 1148 683.249 1148.14 683.012C1148.29 682.775 1148.49 682.586 1148.76 682.445C1149.02 682.305 1149.33 682.234 1149.68 682.234C1150.02 682.234 1150.32 682.296 1150.58 682.418C1150.84 682.538 1151.04 682.717 1151.18 682.957C1151.33 683.194 1151.4 683.49 1151.4 683.844C1151.4 683.987 1151.36 684.141 1151.3 684.305C1151.23 684.466 1151.13 684.617 1150.99 684.758C1150.85 684.898 1150.67 685.014 1150.45 685.105C1150.23 685.194 1149.96 685.238 1149.65 685.238H1149.04V684.801ZM1149.04 685.395V684.961H1149.65C1150.01 684.961 1150.31 685.004 1150.55 685.09C1150.79 685.176 1150.97 685.29 1151.11 685.434C1151.25 685.577 1151.34 685.734 1151.4 685.906C1151.46 686.076 1151.48 686.245 1151.48 686.414C1151.48 686.68 1151.44 686.915 1151.35 687.121C1151.26 687.327 1151.13 687.501 1150.97 687.645C1150.81 687.788 1150.62 687.896 1150.4 687.969C1150.18 688.042 1149.94 688.078 1149.68 688.078C1149.44 688.078 1149.2 688.043 1148.98 687.973C1148.77 687.902 1148.58 687.801 1148.41 687.668C1148.24 687.533 1148.11 687.367 1148.02 687.172C1147.93 686.974 1147.88 686.749 1147.88 686.496H1148.6C1148.6 686.694 1148.64 686.867 1148.73 687.016C1148.82 687.164 1148.94 687.28 1149.11 687.363C1149.27 687.444 1149.46 687.484 1149.68 687.484C1149.91 687.484 1150.1 687.447 1150.25 687.371C1150.42 687.293 1150.54 687.176 1150.63 687.02C1150.71 686.863 1150.76 686.667 1150.76 686.43C1150.76 686.193 1150.71 685.999 1150.61 685.848C1150.51 685.694 1150.37 685.581 1150.19 685.508C1150.01 685.432 1149.8 685.395 1149.55 685.395H1149.04Z" fill="#FAFAFA"/>
<g clip-path="url(#clip6_2634_1937)">
<path fill-rule="evenodd" clip-rule="evenodd" d="M1178 686C1174.69 686 1172 688.686 1172 692C1172 695.314 1174.69 698 1178 698C1181.31 698 1184 695.314 1184 692C1184 688.686 1181.31 686 1178 686ZM1170.67 692C1170.67 687.95 1173.95 684.667 1178 684.667C1182.05 684.667 1185.33 687.95 1185.33 692C1185.33 696.05 1182.05 699.333 1178 699.333C1173.95 699.333 1170.67 696.05 1170.67 692ZM1178 688.667C1178.37 688.667 1178.67 688.965 1178.67 689.333V692C1178.67 692.368 1178.37 692.667 1178 692.667C1177.63 692.667 1177.33 692.368 1177.33 692V689.333C1177.33 688.965 1177.63 688.667 1178 688.667ZM1177.33 694.667C1177.33 694.298 1177.63 694 1178 694H1178.01C1178.37 694 1178.67 694.298 1178.67 694.667C1178.67 695.035 1178.37 695.333 1178.01 695.333H1178C1177.63 695.333 1177.33 695.035 1177.33 694.667Z" fill="#FAFAFA"/>
</g>
<rect x="1180" y="680" width="10" height="10" rx="5" fill="#EF4444"/>
<path d="M1181.53 684.801H1182.04C1182.3 684.801 1182.5 684.759 1182.67 684.676C1182.83 684.59 1182.96 684.474 1183.04 684.328C1183.12 684.18 1183.16 684.013 1183.16 683.828C1183.16 683.609 1183.13 683.426 1183.05 683.277C1182.98 683.129 1182.87 683.017 1182.73 682.941C1182.58 682.866 1182.4 682.828 1182.17 682.828C1181.97 682.828 1181.79 682.868 1181.63 682.949C1181.48 683.027 1181.36 683.139 1181.27 683.285C1181.18 683.431 1181.14 683.603 1181.14 683.801H1180.42C1180.42 683.512 1180.49 683.249 1180.64 683.012C1180.78 682.775 1180.99 682.586 1181.25 682.445C1181.52 682.305 1181.82 682.234 1182.17 682.234C1182.52 682.234 1182.82 682.296 1183.07 682.418C1183.33 682.538 1183.53 682.717 1183.68 682.957C1183.82 683.194 1183.89 683.49 1183.89 683.844C1183.89 683.987 1183.86 684.141 1183.79 684.305C1183.72 684.466 1183.62 684.617 1183.48 684.758C1183.34 684.898 1183.16 685.014 1182.94 685.105C1182.72 685.194 1182.45 685.238 1182.14 685.238H1181.53V684.801ZM1181.53 685.395V684.961H1182.14C1182.51 684.961 1182.81 685.004 1183.04 685.09C1183.28 685.176 1183.47 685.29 1183.6 685.434C1183.74 685.577 1183.84 685.734 1183.89 685.906C1183.95 686.076 1183.98 686.245 1183.98 686.414C1183.98 686.68 1183.93 686.915 1183.84 687.121C1183.75 687.327 1183.62 687.501 1183.46 687.645C1183.3 687.788 1183.11 687.896 1182.89 687.969C1182.67 688.042 1182.43 688.078 1182.18 688.078C1181.93 688.078 1181.7 688.043 1181.48 687.973C1181.26 687.902 1181.07 687.801 1180.9 687.668C1180.74 687.533 1180.61 687.367 1180.51 687.172C1180.42 686.974 1180.37 686.749 1180.37 686.496H1181.09C1181.09 686.694 1181.14 686.867 1181.22 687.016C1181.31 687.164 1181.44 687.28 1181.6 687.363C1181.76 687.444 1181.95 687.484 1182.18 687.484C1182.4 687.484 1182.59 687.447 1182.75 687.371C1182.91 687.293 1183.03 687.176 1183.12 687.02C1183.21 686.863 1183.25 686.667 1183.25 686.43C1183.25 686.193 1183.2 685.999 1183.1 685.848C1183 685.694 1182.86 685.581 1182.68 685.508C1182.5 685.432 1182.29 685.395 1182.04 685.395H1181.53ZM1186.04 684.801H1186.55C1186.8 684.801 1187.01 684.759 1187.18 684.676C1187.34 684.59 1187.47 684.474 1187.55 684.328C1187.63 684.18 1187.67 684.013 1187.67 683.828C1187.67 683.609 1187.64 683.426 1187.56 683.277C1187.49 683.129 1187.38 683.017 1187.23 682.941C1187.09 682.866 1186.9 682.828 1186.68 682.828C1186.48 682.828 1186.3 682.868 1186.14 682.949C1185.99 683.027 1185.87 683.139 1185.78 683.285C1185.69 683.431 1185.65 683.603 1185.65 683.801H1184.93C1184.93 683.512 1185 683.249 1185.14 683.012C1185.29 682.775 1185.49 682.586 1185.76 682.445C1186.02 682.305 1186.33 682.234 1186.68 682.234C1187.02 682.234 1187.32 682.296 1187.58 682.418C1187.84 682.538 1188.04 682.717 1188.18 682.957C1188.33 683.194 1188.4 683.49 1188.4 683.844C1188.4 683.987 1188.36 684.141 1188.3 684.305C1188.23 684.466 1188.13 684.617 1187.99 684.758C1187.85 684.898 1187.67 685.014 1187.45 685.105C1187.23 685.194 1186.96 685.238 1186.65 685.238H1186.04V684.801ZM1186.04 685.395V684.961H1186.65C1187.01 684.961 1187.31 685.004 1187.55 685.09C1187.79 685.176 1187.97 685.29 1188.11 685.434C1188.25 685.577 1188.34 685.734 1188.4 685.906C1188.46 686.076 1188.48 686.245 1188.48 686.414C1188.48 686.68 1188.44 686.915 1188.35 687.121C1188.26 687.327 1188.13 687.501 1187.97 687.645C1187.81 687.788 1187.62 687.896 1187.4 687.969C1187.18 688.042 1186.94 688.078 1186.68 688.078C1186.44 688.078 1186.2 688.043 1185.98 687.973C1185.77 687.902 1185.58 687.801 1185.41 687.668C1185.24 687.533 1185.11 687.367 1185.02 687.172C1184.93 686.974 1184.88 686.749 1184.88 686.496H1185.6C1185.6 686.694 1185.64 686.867 1185.73 687.016C1185.82 687.164 1185.94 687.28 1186.11 687.363C1186.27 687.444 1186.46 687.484 1186.68 687.484C1186.91 687.484 1187.1 687.447 1187.25 687.371C1187.42 687.293 1187.54 687.176 1187.63 687.02C1187.71 686.863 1187.76 686.667 1187.76 686.43C1187.76 686.193 1187.71 685.999 1187.61 685.848C1187.51 685.694 1187.37 685.581 1187.19 685.508C1187.01 685.432 1186.8 685.395 1186.55 685.395H1186.04Z" fill="#FAFAFA"/>
<g clip-path="url(#clip7_2634_1937)">
<path fill-rule="evenodd" clip-rule="evenodd" d="M1215 686C1211.69 686 1209 688.686 1209 692C1209 695.314 1211.69 698 1215 698C1218.31 698 1221 695.314 1221 692C1221 688.686 1218.31 686 1215 686ZM1207.67 692C1207.67 687.95 1210.95 684.667 1215 684.667C1219.05 684.667 1222.33 687.95 1222.33 692C1222.33 696.05 1219.05 699.333 1215 699.333C1210.95 699.333 1207.67 696.05 1207.67 692ZM1215 688.667C1215.37 688.667 1215.67 688.965 1215.67 689.333V692C1215.67 692.368 1215.37 692.667 1215 692.667C1214.63 692.667 1214.33 692.368 1214.33 692V689.333C1214.33 688.965 1214.63 688.667 1215 688.667ZM1214.33 694.667C1214.33 694.298 1214.63 694 1215 694H1215.01C1215.37 694 1215.67 694.298 1215.67 694.667C1215.67 695.035 1215.37 695.333 1215.01 695.333H1215C1214.63 695.333 1214.33 695.035 1214.33 694.667Z" fill="#FAFAFA"/>
</g>
<rect x="1217" y="680" width="10" height="10" rx="5" fill="#EF4444"/>
<path d="M1218.53 684.801H1219.04C1219.3 684.801 1219.5 684.759 1219.67 684.676C1219.83 684.59 1219.96 684.474 1220.04 684.328C1220.12 684.18 1220.16 684.013 1220.16 683.828C1220.16 683.609 1220.13 683.426 1220.05 683.277C1219.98 683.129 1219.87 683.017 1219.73 682.941C1219.58 682.866 1219.4 682.828 1219.17 682.828C1218.97 682.828 1218.79 682.868 1218.63 682.949C1218.48 683.027 1218.36 683.139 1218.27 683.285C1218.18 683.431 1218.14 683.603 1218.14 683.801H1217.42C1217.42 683.512 1217.49 683.249 1217.64 683.012C1217.78 682.775 1217.99 682.586 1218.25 682.445C1218.52 682.305 1218.82 682.234 1219.17 682.234C1219.52 682.234 1219.82 682.296 1220.07 682.418C1220.33 682.538 1220.53 682.717 1220.68 682.957C1220.82 683.194 1220.89 683.49 1220.89 683.844C1220.89 683.987 1220.86 684.141 1220.79 684.305C1220.72 684.466 1220.62 684.617 1220.48 684.758C1220.34 684.898 1220.16 685.014 1219.94 685.105C1219.72 685.194 1219.45 685.238 1219.14 685.238H1218.53V684.801ZM1218.53 685.395V684.961H1219.14C1219.51 684.961 1219.81 685.004 1220.04 685.09C1220.28 685.176 1220.47 685.29 1220.6 685.434C1220.74 685.577 1220.84 685.734 1220.89 685.906C1220.95 686.076 1220.98 686.245 1220.98 686.414C1220.98 686.68 1220.93 686.915 1220.84 687.121C1220.75 687.327 1220.62 687.501 1220.46 687.645C1220.3 687.788 1220.11 687.896 1219.89 687.969C1219.67 688.042 1219.43 688.078 1219.18 688.078C1218.93 688.078 1218.7 688.043 1218.48 687.973C1218.26 687.902 1218.07 687.801 1217.9 687.668C1217.74 687.533 1217.61 687.367 1217.51 687.172C1217.42 686.974 1217.37 686.749 1217.37 686.496H1218.09C1218.09 686.694 1218.14 686.867 1218.22 687.016C1218.31 687.164 1218.44 687.28 1218.6 687.363C1218.76 687.444 1218.95 687.484 1219.18 687.484C1219.4 687.484 1219.59 687.447 1219.75 687.371C1219.91 687.293 1220.03 687.176 1220.12 687.02C1220.21 686.863 1220.25 686.667 1220.25 686.43C1220.25 686.193 1220.2 685.999 1220.1 685.848C1220 685.694 1219.86 685.581 1219.68 685.508C1219.5 685.432 1219.29 685.395 1219.04 685.395H1218.53ZM1223.04 684.801H1223.55C1223.8 684.801 1224.01 684.759 1224.18 684.676C1224.34 684.59 1224.47 684.474 1224.55 684.328C1224.63 684.18 1224.67 684.013 1224.67 683.828C1224.67 683.609 1224.64 683.426 1224.56 683.277C1224.49 683.129 1224.38 683.017 1224.23 682.941C1224.09 682.866 1223.9 682.828 1223.68 682.828C1223.48 682.828 1223.3 682.868 1223.14 682.949C1222.99 683.027 1222.87 683.139 1222.78 683.285C1222.69 683.431 1222.65 683.603 1222.65 683.801H1221.93C1221.93 683.512 1222 683.249 1222.14 683.012C1222.29 682.775 1222.49 682.586 1222.76 682.445C1223.02 682.305 1223.33 682.234 1223.68 682.234C1224.02 682.234 1224.32 682.296 1224.58 682.418C1224.84 682.538 1225.04 682.717 1225.18 682.957C1225.33 683.194 1225.4 683.49 1225.4 683.844C1225.4 683.987 1225.36 684.141 1225.3 684.305C1225.23 684.466 1225.13 684.617 1224.99 684.758C1224.85 684.898 1224.67 685.014 1224.45 685.105C1224.23 685.194 1223.96 685.238 1223.65 685.238H1223.04V684.801ZM1223.04 685.395V684.961H1223.65C1224.01 684.961 1224.31 685.004 1224.55 685.09C1224.79 685.176 1224.97 685.29 1225.11 685.434C1225.25 685.577 1225.34 685.734 1225.4 685.906C1225.46 686.076 1225.48 686.245 1225.48 686.414C1225.48 686.68 1225.44 686.915 1225.35 687.121C1225.26 687.327 1225.13 687.501 1224.97 687.645C1224.81 687.788 1224.62 687.896 1224.4 687.969C1224.18 688.042 1223.94 688.078 1223.68 688.078C1223.44 688.078 1223.2 688.043 1222.98 687.973C1222.77 687.902 1222.58 687.801 1222.41 687.668C1222.24 687.533 1222.11 687.367 1222.02 687.172C1221.93 686.974 1221.88 686.749 1221.88 686.496H1222.6C1222.6 686.694 1222.64 686.867 1222.73 687.016C1222.82 687.164 1222.94 687.28 1223.11 687.363C1223.27 687.444 1223.46 687.484 1223.68 687.484C1223.91 687.484 1224.1 687.447 1224.25 687.371C1224.42 687.293 1224.54 687.176 1224.63 687.02C1224.71 686.863 1224.76 686.667 1224.76 686.43C1224.76 686.193 1224.71 685.999 1224.61 685.848C1224.51 685.694 1224.37 685.581 1224.19 685.508C1224.01 685.432 1223.8 685.395 1223.55 685.395H1223.04Z" fill="#FAFAFA"/>
<g clip-path="url(#clip8_2634_1937)">
<path fill-rule="evenodd" clip-rule="evenodd" d="M1252 686C1248.69 686 1246 688.686 1246 692C1246 695.314 1248.69 698 1252 698C1255.31 698 1258 695.314 1258 692C1258 688.686 1255.31 686 1252 686ZM1244.67 692C1244.67 687.95 1247.95 684.667 1252 684.667C1256.05 684.667 1259.33 687.95 1259.33 692C1259.33 696.05 1256.05 699.333 1252 699.333C1247.95 699.333 1244.67 696.05 1244.67 692ZM1252 688.667C1252.37 688.667 1252.67 688.965 1252.67 689.333V692C1252.67 692.368 1252.37 692.667 1252 692.667C1251.63 692.667 1251.33 692.368 1251.33 692V689.333C1251.33 688.965 1251.63 688.667 1252 688.667ZM1251.33 694.667C1251.33 694.298 1251.63 694 1252 694H1252.01C1252.37 694 1252.67 694.298 1252.67 694.667C1252.67 695.035 1252.37 695.333 1252.01 695.333H1252C1251.63 695.333 1251.33 695.035 1251.33 694.667Z" fill="#FAFAFA"/>
</g>
<rect x="1254" y="680" width="10" height="10" rx="5" fill="#EF4444"/>
<path d="M1255.53 684.801H1256.04C1256.3 684.801 1256.5 684.759 1256.67 684.676C1256.83 684.59 1256.96 684.474 1257.04 684.328C1257.12 684.18 1257.16 684.013 1257.16 683.828C1257.16 683.609 1257.13 683.426 1257.05 683.277C1256.98 683.129 1256.87 683.017 1256.73 682.941C1256.58 682.866 1256.4 682.828 1256.17 682.828C1255.97 682.828 1255.79 682.868 1255.63 682.949C1255.48 683.027 1255.36 683.139 1255.27 683.285C1255.18 683.431 1255.14 683.603 1255.14 683.801H1254.42C1254.42 683.512 1254.49 683.249 1254.64 683.012C1254.78 682.775 1254.99 682.586 1255.25 682.445C1255.52 682.305 1255.82 682.234 1256.17 682.234C1256.52 682.234 1256.82 682.296 1257.07 682.418C1257.33 682.538 1257.53 682.717 1257.68 682.957C1257.82 683.194 1257.89 683.49 1257.89 683.844C1257.89 683.987 1257.86 684.141 1257.79 684.305C1257.72 684.466 1257.62 684.617 1257.48 684.758C1257.34 684.898 1257.16 685.014 1256.94 685.105C1256.72 685.194 1256.45 685.238 1256.14 685.238H1255.53V684.801ZM1255.53 685.395V684.961H1256.14C1256.51 684.961 1256.81 685.004 1257.04 685.09C1257.28 685.176 1257.47 685.29 1257.6 685.434C1257.74 685.577 1257.84 685.734 1257.89 685.906C1257.95 686.076 1257.98 686.245 1257.98 686.414C1257.98 686.68 1257.93 686.915 1257.84 687.121C1257.75 687.327 1257.62 687.501 1257.46 687.645C1257.3 687.788 1257.11 687.896 1256.89 687.969C1256.67 688.042 1256.43 688.078 1256.18 688.078C1255.93 688.078 1255.7 688.043 1255.48 687.973C1255.26 687.902 1255.07 687.801 1254.9 687.668C1254.74 687.533 1254.61 687.367 1254.51 687.172C1254.42 686.974 1254.37 686.749 1254.37 686.496H1255.09C1255.09 686.694 1255.14 686.867 1255.22 687.016C1255.31 687.164 1255.44 687.28 1255.6 687.363C1255.76 687.444 1255.95 687.484 1256.18 687.484C1256.4 687.484 1256.59 687.447 1256.75 687.371C1256.91 687.293 1257.03 687.176 1257.12 687.02C1257.21 686.863 1257.25 686.667 1257.25 686.43C1257.25 686.193 1257.2 685.999 1257.1 685.848C1257 685.694 1256.86 685.581 1256.68 685.508C1256.5 685.432 1256.29 685.395 1256.04 685.395H1255.53ZM1260.04 684.801H1260.55C1260.8 684.801 1261.01 684.759 1261.18 684.676C1261.34 684.59 1261.47 684.474 1261.55 684.328C1261.63 684.18 1261.67 684.013 1261.67 683.828C1261.67 683.609 1261.64 683.426 1261.56 683.277C1261.49 683.129 1261.38 683.017 1261.23 682.941C1261.09 682.866 1260.9 682.828 1260.68 682.828C1260.48 682.828 1260.3 682.868 1260.14 682.949C1259.99 683.027 1259.87 683.139 1259.78 683.285C1259.69 683.431 1259.65 683.603 1259.65 683.801H1258.93C1258.93 683.512 1259 683.249 1259.14 683.012C1259.29 682.775 1259.49 682.586 1259.76 682.445C1260.02 682.305 1260.33 682.234 1260.68 682.234C1261.02 682.234 1261.32 682.296 1261.58 682.418C1261.84 682.538 1262.04 682.717 1262.18 682.957C1262.33 683.194 1262.4 683.49 1262.4 683.844C1262.4 683.987 1262.36 684.141 1262.3 684.305C1262.23 684.466 1262.13 684.617 1261.99 684.758C1261.85 684.898 1261.67 685.014 1261.45 685.105C1261.23 685.194 1260.96 685.238 1260.65 685.238H1260.04V684.801ZM1260.04 685.395V684.961H1260.65C1261.01 684.961 1261.31 685.004 1261.55 685.09C1261.79 685.176 1261.97 685.29 1262.11 685.434C1262.25 685.577 1262.34 685.734 1262.4 685.906C1262.46 686.076 1262.48 686.245 1262.48 686.414C1262.48 686.68 1262.44 686.915 1262.35 687.121C1262.26 687.327 1262.13 687.501 1261.97 687.645C1261.81 687.788 1261.62 687.896 1261.4 687.969C1261.18 688.042 1260.94 688.078 1260.68 688.078C1260.44 688.078 1260.2 688.043 1259.98 687.973C1259.77 687.902 1259.58 687.801 1259.41 687.668C1259.24 687.533 1259.11 687.367 1259.02 687.172C1258.93 686.974 1258.88 686.749 1258.88 686.496H1259.6C1259.6 686.694 1259.64 686.867 1259.73 687.016C1259.82 687.164 1259.94 687.28 1260.11 687.363C1260.27 687.444 1260.46 687.484 1260.68 687.484C1260.91 687.484 1261.1 687.447 1261.25 687.371C1261.42 687.293 1261.54 687.176 1261.63 687.02C1261.71 686.863 1261.76 686.667 1261.76 686.43C1261.76 686.193 1261.71 685.999 1261.61 685.848C1261.51 685.694 1261.37 685.581 1261.19 685.508C1261.01 685.432 1260.8 685.395 1260.55 685.395H1260.04Z" fill="#FAFAFA"/>
<defs>
<linearGradient id="paint0_linear_2634_1937" x1="640" y1="0" x2="640" y2="720" gradientUnits="userSpaceOnUse">
<stop stop-opacity="0"/>
<stop offset="0.890148"/>
</linearGradient>
<clipPath id="clip0_2634_1937">
<rect width="16" height="16" fill="white" transform="translate(20 684)"/>
</clipPath>
<clipPath id="clip1_2634_1937">
<rect width="16" height="16" fill="white" transform="translate(60 684)"/>
</clipPath>
<clipPath id="clip2_2634_1937">
<rect width="16" height="16" fill="white" transform="translate(100 684)"/>
</clipPath>
<clipPath id="clip3_2634_1937">
<rect width="16" height="16" fill="white" transform="translate(1059 684)"/>
</clipPath>
<clipPath id="clip4_2634_1937">
<rect width="16" height="16" fill="white" transform="translate(1096 684)"/>
</clipPath>
<clipPath id="clip5_2634_1937">
<rect width="16" height="16" fill="white" transform="translate(1133 684)"/>
</clipPath>
<clipPath id="clip6_2634_1937">
<rect width="16" height="16" fill="white" transform="translate(1170 684)"/>
</clipPath>
<clipPath id="clip7_2634_1937">
<rect width="16" height="16" fill="white" transform="translate(1207 684)"/>
</clipPath>
<clipPath id="clip8_2634_1937">
<rect width="16" height="16" fill="white" transform="translate(1244 684)"/>
</clipPath>
</defs>
</svg>
