<svg xmlns="http://www.w3.org/2000/svg" width="149" height="117" fill="none" viewBox="0 0 149 117"><rect width="145.754" height="93.927" x="1.884" y="21.847" fill="#2d3250" stroke="#fff" stroke-width="2.233" rx="13.874"/><path fill="#fff" d="M52.116 10.366C52.116 4.64 56.757 0 62.482 0h23.92c5.725 0 10.365 4.64 10.365 10.365v12.599h-44.65z"/><path fill="#424769" d="M58.495 11.8a6.38 6.38 0 0 1 6.379-6.378H84.01a6.38 6.38 0 0 1 6.379 6.379v8.93H58.495z"/><path fill="#fff" d="M40.953 22.326h11.163v92.332H40.953zm11.163 33.01H147v7.973H52.116zM3 47.362h37.953v7.973H3zm55.655 34.445c0 1.57.31 3.126.916 4.577a12 12 0 0 0 2.61 3.88 12 12 0 0 0 3.906 2.593 12.1 12.1 0 0 0 9.215 0 12 12 0 0 0 3.906-2.593 12 12 0 0 0 2.61-3.88c.605-1.45.916-3.006.916-4.577z"/><path stroke="#fff" stroke-width=".638" d="M70.725 63.32 58.924 81.978m11.74-18.658 11.8 18.657"/><path fill="#7077a1" d="M52.116 22.963h81.648c7.046 0 12.758 5.712 12.758 12.758v19.615H52.116z"/><path fill="#f6b17a" d="M3 35.72c0-7.045 5.712-12.757 12.758-12.757h25.196v24.4H3z"/><path fill="#424769" d="M3 55.336h37.954v59.322H15.757C8.712 114.658 3 108.946 3 101.9z"/><path fill="#fff" d="M10.017 73.834c0 1.57.311 3.126.916 4.577a12 12 0 0 0 2.61 3.88 12 12 0 0 0 3.906 2.593 12.11 12.11 0 0 0 13.12-2.593 12 12 0 0 0 2.61-3.88 11.9 11.9 0 0 0 .917-4.577h-24.08"/><path stroke="#fff" stroke-width=".638" d="M22.087 55.347 10.286 74.004m11.74-18.657 11.8 18.657"/></svg>